<svg viewBox="0 0 89 27" fill="none" xmlns="http://www.w3.org/2000/svg">
  <path style="fill: rgb(51, 51, 51); white-space: pre;"/>
  <text style="fill: rgb(51, 51, 51); font-family: Macan; font-size: 1.5px; white-space: pre;"><tspan x="17.606" y="15.433"> </tspan></text>
  <path d="M 0.419 21.463 L 0.419 2.023 L 4.199 2.023 L 4.199 18.007 L 12.92 18.007 L 12.92 21.463 Z" style="fill: rgb(98, 100, 106); white-space: pre;"/>
  <path d="M 18.862 6.856 Q 20.104 6.856 21.116 7.112 Q 22.129 7.369 23.02 7.963 Q 23.911 8.557 24.41 9.65 Q 24.91 10.744 24.91 12.256 L 24.91 21.463 L 21.319 21.463 L 21.319 19.735 Q 20.617 20.734 19.672 21.233 Q 18.727 21.733 17.107 21.733 Q 15.271 21.733 13.961 20.639 Q 12.652 19.546 12.652 17.71 Q 12.652 15.172 14.38 13.984 Q 16.108 12.796 19.105 12.472 L 21.346 12.256 L 21.346 11.878 Q 21.346 10.852 20.63 10.285 Q 19.915 9.718 18.835 9.718 Q 17.782 9.718 16.999 10.298 Q 16.216 10.879 16.108 11.797 L 12.598 11.797 Q 12.787 9.448 14.542 8.152 Q 16.297 6.856 18.862 6.856 Z M 18.106 18.871 Q 19.456 18.871 20.387 18.034 Q 21.319 17.197 21.319 15.793 L 21.319 14.848 L 19.132 15.145 Q 17.863 15.307 17.08 15.874 Q 16.297 16.441 16.297 17.332 Q 16.297 18.007 16.796 18.439 Q 17.296 18.871 18.106 18.871 Z" style="fill: rgb(98, 100, 106); white-space: pre;"/>
  <path d="M 36.503 9.88 L 30.077 18.466 L 36.881 18.466 L 36.881 21.463 L 25.433 21.463 L 25.433 18.817 L 32.021 10.258 L 25.73 10.258 L 25.73 7.261 L 36.503 7.261 Z" style="fill: rgb(98, 100, 106); white-space: pre;"/>
  <path d="M 43.851 16.333 L 47.361 7.261 L 51.114 7.261 L 43.554 26.998 L 39.747 26.998 L 42.069 20.95 L 36.21 7.261 L 40.314 7.261 Z" style="fill: rgb(98, 100, 106); white-space: pre;"/>
  <path d="M 56.893 6.856 Q 60.025 6.856 61.915 8.8 Q 63.805 10.744 63.778 14.146 Q 63.778 14.74 63.724 15.118 L 53.437 15.118 Q 53.626 16.873 54.612 17.885 Q 55.597 18.898 56.974 18.898 Q 59.269 18.898 59.809 16.954 L 63.589 16.954 Q 63.103 19.465 61.362 20.666 Q 59.62 21.868 56.974 21.868 Q 53.896 21.868 51.844 19.829 Q 49.792 17.791 49.792 14.362 Q 49.792 10.987 51.817 8.921 Q 53.842 6.856 56.893 6.856 Z M 53.626 12.445 L 59.782 12.445 Q 59.728 11.203 58.945 10.474 Q 58.162 9.745 56.974 9.745 Q 55.759 9.745 54.868 10.433 Q 53.977 11.122 53.626 12.445 Z" style="fill: rgb(98, 100, 106); white-space: pre;"/>
  <path d="M 71.753 7.126 Q 72.59 7.126 73.319 7.369 L 73.319 11.041 Q 72.509 10.798 71.672 10.798 Q 70.106 10.798 69.093 11.824 Q 68.081 12.85 68.081 14.902 L 68.081 21.463 L 64.355 21.463 L 64.355 7.261 L 68.081 7.261 L 68.081 9.637 Q 68.567 8.557 69.525 7.841 Q 70.484 7.126 71.753 7.126 Z" style="fill: rgb(98, 100, 106); white-space: pre;"/>
  <path d="M 80.612 7.126 Q 81.449 7.126 82.178 7.369 L 82.178 11.041 Q 81.368 10.798 80.531 10.798 Q 78.965 10.798 77.953 11.824 Q 76.94 12.85 76.94 14.902 L 76.94 21.463 L 73.214 21.463 L 73.214 7.261 L 76.94 7.261 L 76.94 9.637 Q 77.426 8.557 78.385 7.841 Q 79.343 7.126 80.612 7.126 Z" style="fill: rgb(98, 100, 106); white-space: pre;"/>
  <path d="M 85.027 13.73 Q 86.048 13.73 87.02 14.253 Q 87.992 14.777 88.535 15.752 Q 89.077 16.727 89.077 17.785 Q 89.077 18.832 88.543 19.799 Q 88.008 20.766 87.044 21.3 Q 86.08 21.835 85.027 21.835 Q 83.975 21.835 83.01 21.3 Q 82.046 20.766 81.509 19.799 Q 80.972 18.832 80.972 17.785 Q 80.972 16.727 81.517 15.752 Q 82.062 14.777 83.035 14.253 Q 84.007 13.73 85.027 13.73 Z M 85.027 14.401 Q 84.173 14.401 83.365 14.839 Q 82.557 15.277 82.1 16.09 Q 81.644 16.904 81.644 17.785 Q 81.644 18.66 82.092 19.463 Q 82.54 20.266 83.346 20.715 Q 84.152 21.163 85.027 21.163 Q 85.903 21.163 86.708 20.715 Q 87.514 20.266 87.96 19.463 Q 88.406 18.66 88.406 17.785 Q 88.406 16.904 87.952 16.09 Q 87.498 15.277 86.687 14.839 Q 85.876 14.401 85.027 14.401 Z M 86.327 18.44 L 86.988 18.634 Q 86.827 19.305 86.303 19.705 Q 85.779 20.105 85.033 20.105 Q 84.087 20.105 83.497 19.493 Q 82.906 18.881 82.906 17.796 Q 82.906 17.087 83.174 16.563 Q 83.443 16.039 83.94 15.773 Q 84.436 15.508 85.076 15.508 Q 85.79 15.508 86.263 15.849 Q 86.735 16.19 86.907 16.775 L 86.268 16.931 Q 86.107 16.533 85.793 16.321 Q 85.478 16.109 85.054 16.109 Q 84.436 16.109 84.036 16.55 Q 83.636 16.99 83.636 17.812 Q 83.636 18.634 84.015 19.055 Q 84.394 19.477 84.995 19.477 Q 85.478 19.477 85.844 19.197 Q 86.209 18.918 86.327 18.44 Z" style="fill: rgb(98, 100, 106); white-space: pre;"/>
</svg>