<svg  width='89' height='27' viewBox="0 0 89 27" fill="none" xmlns="http://www.w3.org/2000/svg">
  <path d="M 84.675 21.956 C 86.362 21.956 87.796 20.521 87.796 18.833 C 87.796 17.146 86.362 15.712 84.675 15.712 C 82.987 15.712 81.552 17.146 81.552 18.833 C 81.552 20.521 82.987 21.956 84.675 21.956 Z" fill="#1dbf73" style=""/>
  <path style="fill: rgb(51, 51, 51); white-space: pre;"/>
  <text style="fill: rgb(51, 51, 51); font-family: Macan; font-size: 1.5px; white-space: pre;"><tspan x="17.606" y="15.433"> </tspan></text>
  <path d="M 15.79 14.928 L 10.424 14.928 L 10.424 11.811 L 19.205 11.811 L 19.205 21.73 L 16.386 21.73 L 16.142 19.372 Q 15.546 20.51 13.988 21.323 Q 12.43 22.136 10.424 22.136 Q 6.115 22.136 3.446 19.386 Q 0.777 16.635 0.777 12.055 Q 0.777 7.665 3.568 4.738 Q 6.359 1.811 10.695 1.811 Q 14.028 1.811 16.44 3.505 Q 18.852 5.199 19.34 8.451 L 15.438 8.451 Q 15.004 6.96 13.771 6.175 Q 12.538 5.389 10.749 5.389 Q 7.958 5.389 6.318 7.299 Q 4.679 9.21 4.679 12.109 Q 4.679 15.009 6.224 16.838 Q 7.768 18.668 10.695 18.668 Q 12.782 18.668 14.218 17.611 Q 15.654 16.554 15.79 14.928 Z" style="fill: rgb(51, 51, 51); white-space: pre; opacity: 0.9;"/>
  <path d="M 22.458 6.066 Q 21.51 6.066 20.913 5.484 Q 20.317 4.901 20.317 4.007 Q 20.317 3.221 20.927 2.652 Q 21.537 2.082 22.458 2.082 Q 23.325 2.082 23.908 2.652 Q 24.491 3.221 24.491 4.007 Q 24.491 4.874 23.908 5.47 Q 23.325 6.066 22.458 6.066 Z M 24.274 21.73 L 20.534 21.73 L 20.534 7.475 L 24.274 7.475 Z" style="fill: rgb(51, 51, 51); white-space: pre; opacity: 0.9;"/>
  <path d="M 34.192 7.448 Q 34.544 5.687 35.872 4.454 Q 37.2 3.221 39.504 3.356 L 39.504 6.771 Q 38.311 6.689 37.444 7.015 Q 36.577 7.34 35.927 8.37 Q 37.444 9.616 37.444 11.676 Q 37.444 13.817 35.818 15.023 Q 34.192 16.229 31.509 16.229 Q 29.748 16.229 28.366 15.687 Q 27.905 16.093 27.905 16.689 Q 27.905 17.177 28.271 17.489 Q 28.637 17.8 29.26 17.828 L 33.488 18.017 Q 35.791 18.126 37.051 19.277 Q 38.311 20.429 38.311 22.353 Q 38.311 24.359 37.024 25.619 Q 35.737 26.879 33.433 26.879 L 29.179 26.879 Q 26.929 26.879 25.601 25.998 Q 24.274 25.117 24.274 23.519 Q 24.274 21.784 26.143 20.321 Q 24.382 19.345 24.382 17.584 Q 24.382 15.605 26.577 14.494 Q 25.52 13.356 25.52 11.676 Q 25.52 9.508 27.173 8.275 Q 28.826 7.042 31.509 7.042 Q 33.027 7.042 34.192 7.448 Z M 31.509 13.464 Q 32.512 13.464 33.108 12.95 Q 33.704 12.435 33.704 11.649 Q 33.704 10.809 33.122 10.307 Q 32.539 9.806 31.509 9.806 Q 30.425 9.806 29.843 10.307 Q 29.26 10.809 29.26 11.649 Q 29.26 12.462 29.856 12.963 Q 30.452 13.464 31.509 13.464 Z M 34.815 22.57 Q 34.815 21.134 32.81 21.08 L 28.772 20.917 Q 27.742 21.649 27.742 22.651 Q 27.742 24.033 30.073 24.033 L 32.783 24.033 Q 34.815 24.033 34.815 22.57 Z" style="fill: rgb(51, 51, 51); white-space: pre; opacity: 0.9;"/>
  <path d="M 46.909 14.467 L 52.113 21.73 L 47.885 21.73 L 44.796 17.394 L 41.706 21.73 L 37.479 21.73 L 42.709 14.467 L 37.723 7.475 L 41.896 7.475 L 44.796 11.54 L 47.722 7.475 L 51.896 7.475 Z" style="fill: rgb(51, 51, 51); white-space: pre; opacity: 0.9;"/>
  <path d="M 57.589 7.069 Q 60.732 7.069 62.629 9.02 Q 64.526 10.971 64.499 14.386 Q 64.499 14.982 64.445 15.361 L 54.12 15.361 Q 54.31 17.123 55.299 18.139 Q 56.288 19.155 57.67 19.155 Q 59.973 19.155 60.515 17.204 L 64.309 17.204 Q 63.822 19.725 62.074 20.931 Q 60.326 22.136 57.67 22.136 Q 54.581 22.136 52.521 20.09 Q 50.461 18.044 50.461 14.603 Q 50.461 11.215 52.494 9.142 Q 54.526 7.069 57.589 7.069 Z M 54.31 12.679 L 60.488 12.679 Q 60.434 11.432 59.648 10.7 Q 58.862 9.969 57.67 9.969 Q 56.45 9.969 55.556 10.66 Q 54.662 11.351 54.31 12.679 Z" style="fill: rgb(51, 51, 51); white-space: pre; opacity: 0.9;"/>
  <path d="M 72.303 7.34 Q 73.143 7.34 73.875 7.584 L 73.875 11.269 Q 73.062 11.025 72.222 11.025 Q 70.65 11.025 69.634 12.055 Q 68.618 13.085 68.618 15.145 L 68.618 21.73 L 64.878 21.73 L 64.878 7.475 L 68.618 7.475 L 68.618 9.86 Q 69.105 8.776 70.067 8.058 Q 71.03 7.34 72.303 7.34 Z" style="fill: rgb(51, 51, 51); white-space: pre; opacity: 0.9;"/>
  <path d="M 81.006 7.34 Q 81.846 7.34 82.578 7.584 L 82.578 11.269 Q 81.765 11.025 80.925 11.025 Q 79.353 11.025 78.337 12.055 Q 77.321 13.085 77.321 15.145 L 77.321 21.73 L 73.581 21.73 L 73.581 7.475 L 77.321 7.475 L 77.321 9.86 Q 77.809 8.776 78.771 8.058 Q 79.733 7.34 81.006 7.34 Z" style="fill: rgb(51, 51, 51); white-space: pre; opacity: 0.9;"/>
</svg>