<svg  width='89' height='27' viewBox="0 0 89 27" fill="none" xmlns="http://www.w3.org/2000/svg">
    <path d="M 85.297 21.743 C 87.297 21.743 88.997 20.043 88.997 18.043 C 88.997 16.043 87.297 14.343 85.297 14.343 C 83.297 14.343 81.597 16.043 81.597 18.043 C 81.597 20.043 83.297 21.743 85.297 21.743 Z" fill="#1dbf73"/>
    <path style="fill: rgb(51, 51, 51); white-space: pre;"/>
    <text style="fill: rgb(51, 51, 51); font-family: Macan; font-size: 1.5px; white-space: pre;"><tspan x="17.606" y="15.433"> </tspan></text>
    <path d="M 0.475 21.546 L 0.475 2.106 L 4.255 2.106 L 4.255 18.09 L 12.976 18.09 L 12.976 21.546 Z" style="fill: rgb(64, 65, 69); white-space: pre;"/>
    <path d="M 18.918 6.939 Q 20.16 6.939 21.172 7.195 Q 22.185 7.452 23.076 8.046 Q 23.967 8.64 24.466 9.733 Q 24.966 10.827 24.966 12.339 L 24.966 21.546 L 21.375 21.546 L 21.375 19.818 Q 20.673 20.817 19.728 21.316 Q 18.783 21.816 17.163 21.816 Q 15.327 21.816 14.017 20.722 Q 12.708 19.629 12.708 17.793 Q 12.708 15.255 14.436 14.067 Q 16.164 12.879 19.161 12.555 L 21.402 12.339 L 21.402 11.961 Q 21.402 10.935 20.686 10.368 Q 19.971 9.801 18.891 9.801 Q 17.838 9.801 17.055 10.381 Q 16.272 10.962 16.164 11.88 L 12.654 11.88 Q 12.843 9.531 14.598 8.235 Q 16.353 6.939 18.918 6.939 Z M 18.162 18.954 Q 19.512 18.954 20.443 18.117 Q 21.375 17.28 21.375 15.876 L 21.375 14.931 L 19.188 15.228 Q 17.919 15.39 17.136 15.957 Q 16.353 16.524 16.353 17.415 Q 16.353 18.09 16.852 18.522 Q 17.352 18.954 18.162 18.954 Z" style="fill: rgb(64, 65, 69); white-space: pre;"/>
    <path d="M 36.559 9.963 L 30.133 18.549 L 36.937 18.549 L 36.937 21.546 L 25.489 21.546 L 25.489 18.9 L 32.077 10.341 L 25.786 10.341 L 25.786 7.344 L 36.559 7.344 Z" style="fill: rgb(64, 65, 69); white-space: pre;"/>
    <path d="M 43.907 16.416 L 47.417 7.344 L 51.17 7.344 L 43.61 27.081 L 39.803 27.081 L 42.125 21.033 L 36.266 7.344 L 40.37 7.344 Z" style="fill: rgb(64, 65, 69); white-space: pre;"/>
    <path d="M 56.949 6.939 Q 60.081 6.939 61.971 8.883 Q 63.861 10.827 63.834 14.229 Q 63.834 14.823 63.78 15.201 L 53.493 15.201 Q 53.682 16.956 54.668 17.968 Q 55.653 18.981 57.03 18.981 Q 59.325 18.981 59.865 17.037 L 63.645 17.037 Q 63.159 19.548 61.418 20.749 Q 59.676 21.951 57.03 21.951 Q 53.952 21.951 51.9 19.912 Q 49.848 17.874 49.848 14.445 Q 49.848 11.07 51.873 9.004 Q 53.898 6.939 56.949 6.939 Z M 53.682 12.528 L 59.838 12.528 Q 59.784 11.286 59.001 10.557 Q 58.218 9.828 57.03 9.828 Q 55.815 9.828 54.924 10.516 Q 54.033 11.205 53.682 12.528 Z" style="fill: rgb(64, 65, 69); white-space: pre;"/>
    <path d="M 71.809 7.209 Q 72.646 7.209 73.375 7.452 L 73.375 11.124 Q 72.565 10.881 71.728 10.881 Q 70.162 10.881 69.149 11.907 Q 68.137 12.933 68.137 14.985 L 68.137 21.546 L 64.411 21.546 L 64.411 7.344 L 68.137 7.344 L 68.137 9.72 Q 68.623 8.64 69.581 7.924 Q 70.54 7.209 71.809 7.209 Z" style="fill: rgb(64, 65, 69); white-space: pre;"/>
    <path d="M 80.668 7.209 Q 81.505 7.209 82.234 7.452 L 82.234 11.124 Q 81.424 10.881 80.587 10.881 Q 79.021 10.881 78.009 11.907 Q 76.996 12.933 76.996 14.985 L 76.996 21.546 L 73.27 21.546 L 73.27 7.344 L 76.996 7.344 L 76.996 9.72 Q 77.482 8.64 78.441 7.924 Q 79.399 7.209 80.668 7.209 Z" style="fill: rgb(64, 65, 69); white-space: pre;"/>
  </svg>