<svg width='89' height='27' viewBox="0 0 89 27" fill="none" xmlns="http://www.w3.org/2000/svg">
    <g  fill="#1dbf73" transform="matrix(1, 0, 0, 1, 0.007117, -5.171494)">
      <path d="m85.3 27c2 0 3.7-1.7 3.7-3.7s-1.7-3.7-3.7-3.7-3.7 1.7-3.7 3.7 1.7 3.7 3.7 3.7z"/>
    </g>
    <path  style=" white-space: pre;"/>
    <text style=" font-family: Macan; font-size: 1.5px; white-space: pre;"><tspan x="17.606" y="15.433"> </tspan></text>
    <g className='svg-logo'><path d="M 0.419 21.463 L 0.419 2.023 L 4.199 2.023 L 4.199 18.007 L 12.92 18.007 L 12.92 21.463 Z" style="fill: rgb(255, 255, 255); white-space: pre;"/>
    <path className='svg-logo' d="M 18.862 6.856 Q 20.104 6.856 21.116 7.112 Q 22.129 7.369 23.02 7.963 Q 23.911 8.557 24.41 9.65 Q 24.91 10.744 24.91 12.256 L 24.91 21.463 L 21.319 21.463 L 21.319 19.735 Q 20.617 20.734 19.672 21.233 Q 18.727 21.733 17.107 21.733 Q 15.271 21.733 13.961 20.639 Q 12.652 19.546 12.652 17.71 Q 12.652 15.172 14.38 13.984 Q 16.108 12.796 19.105 12.472 L 21.346 12.256 L 21.346 11.878 Q 21.346 10.852 20.63 10.285 Q 19.915 9.718 18.835 9.718 Q 17.782 9.718 16.999 10.298 Q 16.216 10.879 16.108 11.797 L 12.598 11.797 Q 12.787 9.448 14.542 8.152 Q 16.297 6.856 18.862 6.856 Z M 18.106 18.871 Q 19.456 18.871 20.387 18.034 Q 21.319 17.197 21.319 15.793 L 21.319 14.848 L 19.132 15.145 Q 17.863 15.307 17.08 15.874 Q 16.297 16.441 16.297 17.332 Q 16.297 18.007 16.796 18.439 Q 17.296 18.871 18.106 18.871 Z" style="fill: rgb(255, 255, 255); white-space: pre;"/>
    <path className='svg-logo' d="M 36.503 9.88 L 30.077 18.466 L 36.881 18.466 L 36.881 21.463 L 25.433 21.463 L 25.433 18.817 L 32.021 10.258 L 25.73 10.258 L 25.73 7.261 L 36.503 7.261 Z" style="fill: rgb(255, 255, 255); white-space: pre;"/>
    <path className='svg-logo' d="M 43.851 16.333 L 47.361 7.261 L 51.114 7.261 L 43.554 26.998 L 39.747 26.998 L 42.069 20.95 L 36.21 7.261 L 40.314 7.261 Z" style="fill: rgb(255, 255, 255); white-space: pre;"/>
    <path className='svg-logo'  d="M 56.893 6.856 Q 60.025 6.856 61.915 8.8 Q 63.805 10.744 63.778 14.146 Q 63.778 14.74 63.724 15.118 L 53.437 15.118 Q 53.626 16.873 54.612 17.885 Q 55.597 18.898 56.974 18.898 Q 59.269 18.898 59.809 16.954 L 63.589 16.954 Q 63.103 19.465 61.362 20.666 Q 59.62 21.868 56.974 21.868 Q 53.896 21.868 51.844 19.829 Q 49.792 17.791 49.792 14.362 Q 49.792 10.987 51.817 8.921 Q 53.842 6.856 56.893 6.856 Z M 53.626 12.445 L 59.782 12.445 Q 59.728 11.203 58.945 10.474 Q 58.162 9.745 56.974 9.745 Q 55.759 9.745 54.868 10.433 Q 53.977 11.122 53.626 12.445 Z" style="fill: rgb(255, 255, 255); white-space: pre;"/>
    <path className='svg-logo' d="M 71.753 7.126 Q 72.59 7.126 73.319 7.369 L 73.319 11.041 Q 72.509 10.798 71.672 10.798 Q 70.106 10.798 69.093 11.824 Q 68.081 12.85 68.081 14.902 L 68.081 21.463 L 64.355 21.463 L 64.355 7.261 L 68.081 7.261 L 68.081 9.637 Q 68.567 8.557 69.525 7.841 Q 70.484 7.126 71.753 7.126 Z" style="fill: rgb(255, 255, 255); white-space: pre;"/>
    <path className='svg-logo' d="M 80.612 7.126 Q 81.449 7.126 82.178 7.369 L 82.178 11.041 Q 81.368 10.798 80.531 10.798 Q 78.965 10.798 77.953 11.824 Q 76.94 12.85 76.94 14.902 L 76.94 21.463 L 73.214 21.463 L 73.214 7.261 L 76.94 7.261 L 76.94 9.637 Q 77.426 8.557 78.385 7.841 Q 79.343 7.126 80.612 7.126 Z" style="fill: rgb(255, 255, 255); white-space: pre;"/>
    </g>
  </svg>