<svg width="16" height="16" viewBox="0 0 16 16" xmlns="http://www.w3.org/2000/svg"><path  fill-rule="evenodd" className="details-svg-clr" d="M1 3.74677e-06C0.446875 3.74677e-06 0 0.446879 0 1V15.5C0 15.775 0.225 16 0.5 16H1.5C1.775 16 2 15.775 2 15.5V1C2 0.446879 1.55313 3.74677e-06 1 3.74677e-06ZM14.4563 0.131254C9.10312 2.85938 9.54375 -1.94375 3 1.0125V12C8.80313 9.11875 9.92813 13.6656 15.4219 11.2781C15.7781 11.1219 16 10.7625 16 10.3781V0.962504C16 0.178129 15.1625 -0.228121 14.4563 0.131254Z" ></path></svg>